# xmcd
#
# Track frame offsets:
#	150
#	17541
#	30032
#	53664
#	68774
#	87011
#	102551
#	117887
#	118593
#	127144
#	130533
#	149461
#	161797
#	177389
#	190171
#	219926
#	224161
#	240917
#
# Disc length: 3543 seconds
#
# Revision: 1
# Processed by: cddbd v1.5.2PL0 Copyright (c) Steve Scherf et al.
# Submitted via: audiograbber 1.83.01
#
DISCID=f80dd512
DTITLE=Jim Adam Blues Band - Live at Jimbo's Take 2
DYEAR=2008
DGENRE=Blues
TTITLE0=Weepin' and Bendin'
TTITLE1=You Got Me Runnin'
TTITLE2=Is You Is or Is You Ain't My Baby
TTITLE3=Room 402
TTITLE4=Henry
TTITLE5=Shoe Foot
TTITLE6=Built For Comfort
TTITLE7=300 Pounds of Joy (Intro)
TTITLE8=300 Pounds of Joy
TTITLE9=All Things Come With a Price (Intro)
TTITLE10=All Things Come With a Price
TTITLE11=Mr. Stanely
TTITLE12=People Get Ready
TTITLE13=A Good Fool is Hard to Find
TTITLE14=Dirty Dishes
TTITLE15=Old Nicodemus
TTITLE16=Inside Out
TTITLE17=Big Boss Man
EXTD=
EXTT0=
EXTT1=
EXTT2=
EXTT3=
EXTT4=
EXTT5=
EXTT6=
EXTT7=
EXTT8=
EXTT9=
EXTT10=
EXTT11=
EXTT12=
EXTT13=
EXTT14=
EXTT15=
EXTT16=
EXTT17=
PLAYORDER=
